<svg height="46.9px" id="swi-logo-secondary-fullcolor" style="enable-background:new 0 0 407.7 46.9;" version="1.1" viewBox="0 0 407.7 46.9" width="407.7px" x="0px" xml:space="preserve" xmlns:xlink="http://www.w3.org/1999/xlink" xmlns="http://www.w3.org/2000/svg" y="0px">
  <?xml-stylesheet type="text/css" href="svg.css" ?>
  <style>
    .st0a{fill:#4D8250;}
    .st1a{fill:#72C277;}
    .st2aa{fill:#414042;}
  </style>
  <g>
    <path class="st2a" d="M119.6,22.5c-1.4-0.7-3.1-1.4-5.2-2.1c-2-0.6-3.5-1.2-4.6-1.7c-1-0.5-1.8-1.2-2.1-1.8
      c-0.4-0.7-0.6-1.5-0.6-2.4c0-1.5,0.6-2.7,1.7-3.5c1.1-0.8,2.6-1.2,4.3-1.2c1.4,0,2.7,0.2,3.9,0.7c1.2,0.5,2.4,1.2,3.6,2.3l2.6-2.9
      c-1.5-1.3-3-2.3-4.6-2.9c-1.6-0.6-3.5-0.9-5.7-0.9c-2,0-3.8,0.4-5.4,1.1c-1.6,0.7-2.8,1.8-3.7,3.1c-0.9,1.3-1.3,2.8-1.3,4.5
      c0,2.5,0.8,4.4,2.4,5.9c1.6,1.4,4.1,2.7,7.5,3.7c1.9,0.6,3.4,1.2,4.4,1.7c1,0.6,1.7,1.2,2.1,2c0.4,0.7,0.6,1.6,0.6,2.7
      c0,1.9-0.7,3.4-2,4.4c-1.4,1-3.1,1.5-5.1,1.5c-3.3,0-6.2-1.2-8.6-3.5L101,36c2.9,2.9,6.7,4.3,11.3,4.3c2.4,0,4.6-0.4,6.3-1.3
      c1.8-0.8,3.2-2,4.1-3.5c0.9-1.5,1.4-3.2,1.4-5.1c0-2-0.4-3.6-1.3-4.9C122.1,24.2,120.9,23.2,119.6,22.5z"></path>
      <polygon class="st2a" points="132.6,10.4 142.1,10.4 142.1,39.7 146.7,39.7 146.7,10.4 155.9,10.4 156.4,6.5 132.6,6.5   "></polygon>
      <rect class="st2a" height="33.2" width="4.6" x="167.9" y="6.5"></rect>
      <polygon class="st2a" points="193.1,6.5 188.5,6.5 188.5,39.7 206.2,39.7 206.7,35.7 193.1,35.7   "></polygon>
      <polygon class="st2a" points="223.4,6.5 218.8,6.5 218.8,39.7 236.5,39.7 237,35.7 223.4,35.7   "></polygon>
      <polygon class="st2a" points="272.8,37.1 265.4,6.7 262.2,6.7 254.9,37.1 248.7,6.7 245.7,6.7 253,39.7 256.5,39.7 263.8,9.9 
        271,39.7 274.6,39.7 281.8,6.7 279.1,6.7   "></polygon>
        <path class="st2a" d="M300.5,6.7l-11,33h2.9l2.9-9h13.9l2.9,9h3l-11-33H300.5z M296,28.3l6.2-19.2l6.1,19.2H296z"></path>
        <polygon class="st2a" points="320.5,9.3 330.3,9.3 330.3,39.7 333.1,39.7 333.1,9.3 342.8,9.3 343.2,6.7 320.5,6.7   "></polygon>
        <polygon class="st2a" points="358.2,23.8 369.9,23.8 369.9,21.4 358.2,21.4 358.2,9.1 371.7,9.1 372.1,6.7 355.3,6.7 355.3,39.7 
          372.4,39.7 372.4,37.3 358.2,37.3  "></polygon>
          <path class="st2a" d="M398.6,24.4c2.4-0.6,4.2-1.6,5.5-3c1.3-1.4,1.9-3.3,1.9-5.7c0-6-3.9-9-11.8-9h-8v33h2.9V24.9h6.6l8.5,14.8h3.5
            L398.6,24.4z M394.6,22.6h-5.5V9.1h5c3.1,0,5.3,0.5,6.7,1.6c1.4,1.1,2.1,2.7,2.1,5C402.9,20.3,400.2,22.6,394.6,22.6z"></path>
          </g>
          <g>
            <polygon class="st0a" points="17.6,26 35.2,15.6 35.2,10.4 17.6,20.8   "></polygon>
            <polygon class="st0a" points="52.8,26 66,18.2 66,23.4 52.8,31.3 52.8,36.5 70.4,26 70.4,20.8 70.4,15.6 70.4,10.4 52.8,20.8   "></polygon>
            <polygon class="st0a" points="17.6,36.5 35.2,26 35.2,20.8 17.6,31.3   "></polygon>
            <polygon class="st0a" points="17.6,15.6 35.2,5.2 35.2,0 17.6,10.4   "></polygon>
            <polygon class="st0a" points="52.8,10.4 52.8,15.6 70.4,5.2 70.4,0   "></polygon>
            <polygon class="st0a" points="52.8,46.9 70.4,36.5 70.4,31.3 52.8,41.7   "></polygon>
            <polygon class="st0a" points="17.6,46.9 35.2,36.5 35.2,31.3 17.6,41.7   "></polygon>
          </g>
          <g>
            <polygon class="st1a" points="35.2,26 52.8,36.5 52.8,31.3 35.2,20.8   "></polygon>
            <polygon class="st1a" points="0,26 17.6,36.5 17.6,31.3 0,20.8   "></polygon>
            <polygon class="st1a" points="35.2,15.6 52.8,26 52.8,20.8 35.2,10.4   "></polygon>
            <polygon class="st1a" points="0,5.2 0,10.4 0,15.6 17.6,26 17.6,20.8 4.4,13 4.4,7.8 17.6,15.6 17.6,10.4 0,0  "></polygon>
            <polygon class="st1a" points="35.2,0 35.2,5.2 52.8,15.6 52.8,10.4   "></polygon>
            <polygon class="st1a" points="0,36.5 17.6,46.9 17.6,41.7 0,31.3   "></polygon>
            <polygon class="st1a" points="35.2,36.5 52.8,46.9 52.8,41.7 35.2,31.3   "></polygon>
          </g>
        </svg>